<svg id="Capa_1" enable-background="new 0 0 512.001 512.001" height="512" viewBox="0 0 512.001 512.001" width="512" xmlns="http://www.w3.org/2000/svg"><path d="m512 256.27c0 1.63-.02 3.26-.06 4.88-.07 3.48-.2 6.95-.41 10.4-1.07 17.84-3.97 35.18-8.51 51.84-23.74 87.26-92.47 155.96-179.7 179.66-14.09 3.84-28.67 6.49-43.62 7.86-3.88.36-7.78.63-11.7.81-4.06.19-8.16.29-12.27.28-10.35-.01-20.56-.63-30.58-1.85-2.13-.26-4.26-.54-6.38-.85-4.31-.62-8.58-1.35-12.81-2.19-.23-.05-.47-.09-.7-.14-.87-.18-1.73-.36-2.6-.54-1.79-.38-3.58-.77-5.35-1.19-10.14-2.38-20.04-5.36-29.67-8.9-3.52-1.3-7-2.67-10.45-4.12-92.42-38.69-157.3-130.04-157.19-236.49.15-141.38 114.89-255.88 256.27-255.73 114.41.12 211.22 75.29 243.9 178.87.67 2.11 1.31 4.24 1.92 6.37 1.8 6.28 3.37 12.66 4.69 19.12.51 2.51.99 5.03 1.43 7.56.07.41.14.82.21 1.23.68 3.97 1.25 7.98 1.74 12.01.26 2.18.49 4.36.7 6.56.35 3.69.62 7.41.8 11.15.23 4.44.35 8.9.34 13.4z" fill="#f9da55"/><path d="m512 256.27c0 1.63-.02 3.26-.06 4.88-.07 3.48-.2 6.95-.41 10.4-1.07 17.84-3.97 35.18-8.51 51.84-23.74 87.26-92.47 155.96-179.7 179.66-14.09 3.84-28.67 6.49-43.62 7.86-3.88.36-7.78.63-11.7.81l-177-176.57 330-210 87.42 88c.68 3.97 1.25 7.98 1.74 12.01.26 2.18.49 4.36.7 6.56.35 3.69.62 7.41.8 11.15.23 4.44.35 8.9.34 13.4z" fill="#f4c042"/><path d="m226.288 318.139h59.712v76.376h-59.712z" fill="#3082c6"/><path d="m256 318.139h30v76.376h-30z" fill="#2d77c1"/><path d="m191 360.846h130v40h-130z" fill="#2869b6"/><path d="m256 360.846h65v40h-65z" fill="#1f55b8"/><path d="m106 140.154h300v180h-300z" fill="#64e1dc"/><path d="m256 140.154h150v180h-150z" fill="#00c8c8"/><path d="m421 335.154h-330v-210h330zm-300-30h270v-150h-270z" fill="#2869b6"/><path d="m256 125.154v30h135v150h-135v30h165v-210z" fill="#1f55b8"/></svg>